<svg xmlns="http://www.w3.org/2000/svg" xmlns:xlink="http://www.w3.org/1999/xlink" width="472.422" height="443.914" viewBox="0 0 472.422 443.914">
  <defs>
    <linearGradient id="linear-gradient" x1="0.5" x2="0.5" y2="1" gradientUnits="objectBoundingBox">
      <stop offset="0" stop-color="#1890ff"/>
      <stop offset="1" stop-color="#1760ff"/>
    </linearGradient>
    <linearGradient id="linear-gradient-2" x1="0.5" x2="0.5" y2="1" gradientUnits="objectBoundingBox">
      <stop offset="0" stop-color="#c5eeff"/>
      <stop offset="1" stop-color="#c4d8ff"/>
    </linearGradient>
  </defs>
  <g id="Character_zombieing" data-name="Character/zombieing" transform="translate(-161 -54)">
    <path id="Accent" d="M489.273,94.758q-3.121,8.26-6.241,16.522-2,5.294-4,10.586c-.473,1.251-.736,2.535-1.651,3.4-2.155,2.045-6.024,3.347-8.614,4.786l-5.206,2.892c-.895.5-2.879,1.122-3.506,1.948-.69.91-.364,2.58-.364,3.838v31.325l26.893-3.362-35.829,41.341c-2.943,3.4-6.517,6.665-8.71,10.616-4.667,8.411-9.23,16.882-13.843,25.322l-12.884,23.569,38.638-1.644c10-.426,20.28.214,29.918-2.621l23.836-7.01c1.057-.311,4.349-.663,5.1-1.513.7-.8.686-3.807.885-4.826,3.75-19.275,8.524-40.517,19.47-57.109,7.847-11.894,18.436-22.308,28.134-32.68,3.785-4.048,7.636-8.048,11.287-12.219a18.21,18.21,0,0,0,2.9-3.578c.4-.838.957-2.436.709-3.18-.108-.323-2.6-1.48-2.96-1.71-2.529-1.625-5.035-3.284-7.547-4.936-7.058-4.64-14.109-9.292-21.208-13.871-5.534-3.57-11.052-7.355-16.889-10.423-6.05-3.18-12.714-5.418-19.057-7.931q-9.615-3.809-19.262-7.536" transform="translate(-83.335 -13.356)" fill-rule="evenodd" fill="url(#linear-gradient)"/>
    <g id="Ink" transform="translate(161 54)">
      <path id="Fill-3" d="M473.239,321.6c-3.078,2.9-8.683,6.793-13.114,5.023-2.225-.889-4.126-2.841-6.153-4.1a37.41,37.41,0,0,1-6.639-4.93c-4.028-3.934-7.078-9.682-11.835-12.762-1.6-1.035-4.72-1.257-5.829-2.91a4.351,4.351,0,0,1-.452-2.724c.2-1.846,1.2-1.737-.47-3.093h2.588c.05-1-.948-1.082-1.692-.953.346-1.585.7-7.785-2.19-4.975-2.5,2.436-1.251,6.477-3.024,9.115-1.357,2.02-4.96.385-5.446-1.838-.218-1,.881-2.557,1.013-3.536a7.242,7.242,0,0,0-2.09-5.692c-3.089,2.058-1.338,6.317-3.1,9.021-1.593,2.447-5.14,1.3-7.565.875-2.907-.516-6.194.006-8.975-.68-4.2-1.037-2.631-5.968-3.047-9.15-.446-3.409-3.891-8.141-2.856-11.581,1.112-3.693,7.613-4.491,10.72-5.387,7.1-2.049,17.232-2.443,22.511-8.177,4.2,4.683,7.577,10.046,11.981,14.554,4.757,4.87,9.839,9.365,14.406,14.431,4.753,5.272,9.66,10.443,14.24,15.868,2,2.367,3.754,4.917,5.821,7.227,1.838,2.053,3.776,3.943,1.194,6.374M262.155,230.518c2.182-1.16,2.46-.433,2.459,1.957a3.963,3.963,0,0,0-2.459-1.957m-18.5,46.461v-4.213c2.1-.055.81,3.548,0,4.213m-.514,6.274a18.618,18.618,0,0,1,.487-5.457c.282,1.977.822,3.689-.487,5.457m9.045,128.159c1.932.181,4.91-1.15,6.535.366,1.669,1.558,1.536,6.092,1.931,8.2.654,3.478,1.232,6.967,1.783,10.462.361,2.291.807,4.618-1.783,5.495-3.828,1.295-9.3-.553-13.288-.721-7.882-.331-15.761-.793-23.65-.953a184.611,184.611,0,0,0-22.921.763c-3.438.359-6.8.994-10.2,1.568-1.794.3-6.6,1.571-8.22.058-3.048-2.847,2.02-9.493,4.2-11.37,4.045-3.483,9.8-6,14.871-7.508,2.711-.809,7.23-3.079,9.365-.54,1.638,1.948,1.573,4.548,3.921,6.023,5.44,3.419,2.257-6.389-1.142-7.6,2.283-5.342,6.633,2.2,8.438,4.012.642.645,2.73,2.771,3.637,1.7.679-.8-.677-3.667-.928-4.447-.382-1.185-1.348-2.986-1.07-4.271.5-2.325,3.764-2.958,5.717-3.152,3.029-.3,6,.66,8.994.981,4.592.492,9.22.5,13.817.931m-30.41-218.983c-5.979.476-12-.438-17.96.31-5.643.709-10.962,2.781-16.282,4.684a224.417,224.417,0,0,1,30.614-51.256c6.211-7.879,12.891-15.7,19.6-23.16,3.123-3.469,6.353-6.823,9.577-10.2,2.876-3.008,4.937-8.116,8.389-10.362,2.946-1.917,8.095-.55,11.36-.431,3.69.134,8.181.47,11.78-.758,2.608-.89,3.325-3.265.061-3.344-3.85-.093-7.638.308-11.538-.053-10.107-.934-19.85-2.469-30.039-1.6-2.334.2-5.407,1.193-7.7.895-1.647-.216-.564.612-1.709-.709a6.545,6.545,0,0,1-1.1-2.366c-.729-3.772,1.342-9.163,1.837-12.961.459-3.515.052-7.378.91-10.8.781-3.115,3.163-3.53,6.1-3.863,8.023-.911,16.21-1.4,24.269-2.082,18.392-1.567,37.368-3.93,55.635-.058,6.6,1.4,14.639,3.559,20.531,7.02,1.843,1.082,3.7,2.356,3.031,4.6-.7,2.327-4.1,4.785-5.792,6.318-12.478,11.327-24.529,22.881-33.294,37.415-11.178,18.534-17.593,38.551-21.356,59.789-.809,4.569-1.561,6.961-6.262,8.276a79.205,79.205,0,0,1-15.15,2.76c-11.829.972-23.694.992-35.517,1.935M225.78,69.692c-.906,6.747-2.133,13.479-2.254,20.279-.046,2.568-.289,3.855-3.02,4.428-3.22.675-6.493,1.178-9.728,1.878-15.611,3.383-30.926,7.538-46.2,12.215-14.843,4.546-29.442,9.661-44.618,13.028-6.528,1.449-14.167,2.425-20.113,5.633-6.4,3.452-5.555,9.111-6.129,15.326-.767,8.3-3.23,16.345-4.1,24.647a100.165,100.165,0,0,0-.729,11.949c.053,3.4.541,7.165-1.747,10.028-4.589-6.134-6.764-13.85-7.668-21.368-.44-3.655-.266-7.339-.391-11.011-.1-2.956-.036-7.658-1.961-10.127-4.186-5.365-9.63,16.136-10.147,18.432-.871,3.864-1.589,7.761-2.456,11.626-.385,1.713-.878,7.941-3.173,8.561-4.757,1.287-3.713-12.08-3.788-14.115-.151-4.108-.253-8.22-.157-12.332.07-2.968.644-6.188.3-9.157-.837-7.29-4.936.391-6.089,3.1-2.912,6.85-4.229,14.183-6.84,21.143-.434,1.158-1.455,5.055-3.072,5.128-1.8.08-1.785-3.945-1.888-5.121-.6-6.817-2.613-13.586-2-20.473a50.779,50.779,0,0,1,6.5-20.153c7.293-12.789,20.464-20.132,33.08-26.821a270.866,270.866,0,0,1,45.247-18.627,448.929,448.929,0,0,1,57.287-14.13c9.839-1.735,19.831-2.976,29.771-3.971,3.493-.35,6.988-.554,10.436-1.219,1.3-.251,6-1.446,5.64,1.22m10.057-21.834c-4.933.039-9.972-2.352-14.778-3.341-5.721-1.178-11.309-2.882-17.021-4.112C192.855,38,181.665,35.65,170.491,33.189c-4.851-1.068-9.725-2-14.557-3.146-5.169-1.228-10.754-2.6-16.046-1.274-8.02,2-11.408,10.779-14.353,17.627-2.08,4.837-3.71,10.228-6.954,14.437-1.155,1.5-2.8,3.29-4.891,2.8-3.891-.9-3.273-6.051-2.777-8.9.718-4.13,1.735-8.212,2.549-12.323.328-1.659,2.871-12.519-1.669-10.838-3.368,1.247-5.149,9.462-6.424,12.4-.947,2.18-1.951,4.347-3.014,6.473-1.419,2.837-5.466,12.314-9.947,11.092-6.413-1.749-.262-18.608.831-22.161.6-1.95,7.118-16.742,1.616-15.533-2.343.516-4.626,4.868-5.82,6.671-2.118,3.2-4.23,6.422-6.224,9.7-2.051,3.372-3.1,7.209-5.133,10.532-1.07,1.749-3.255,4.079-5.387,2.46-3.325-2.522-1.354-11.294-.772-14.612a43.133,43.133,0,0,1,7.465-17.531C84.532,13.491,95,11.043,103.8,9.571c11.362-1.9,22.881-1.38,34.29-.256,12.831,1.265,25.467,2.619,38.115,5.2,12.747,2.606,25.5,5.191,38.05,8.637,5.912,1.624,11.91,3.063,17.738,4.969,6.2,2.026,12.243,4.547,18.612,6.007L243.885,50.9a11.156,11.156,0,0,0-8.048-3.046m109.806,15.4c1.965-1.074,4.135-1.581,4.851-3.956.634-2.1-.449-4.476-.967-6.49a36.612,36.612,0,0,1-.548-17.187c1.225,1.87,5.81,9.062,8.6,4.708,1.682-2.626-2.825-6.4-4.141-8.25,2.887-1.782,7.01-6.563,10.337-3.68,2.15,1.864,3.06,3.659,5.957,4.566,3.517,1.1,6.828.848,10.42.545,2.514-.212,3.12-.548,4.1,1.388a27.568,27.568,0,0,1,1.62,5.04c.887,3.222,2.943,9.572.509,12.591-2.132,2.644-10.406.377-11.555,3.791-.627,1.862,2.364,1.928,3.507,2.849a13.477,13.477,0,0,1,3.355,4.576c.569,1.2,1.435,3.179.466,4.405-1.339,1.7-3.821.409-4.9-.823-1.433-1.637-1.9-3.875-3.095-5.658-2.2-3.272-2.326-.669-2.924,1.68-.621,2.441-2.089,2.272-4.338,2.586a93.029,93.029,0,0,0-11.774,2.385,44.242,44.242,0,0,0-5.752,2.039c-1.208.519-3.3,2.092-4.613,2.107-2.429.027-4.113-4.035-5.367-5.73,2.082-1.162,4.158-2.336,6.251-3.48m130.45,248.775c-6.067-7.283-11.321-15.194-17.307-22.541-5.9-7.246-12.734-13.581-19.36-20.143-3.127-3.1-6.123-6.5-9.575-9.24-2.575-2.048-4.556-2.079-7.654-1.173a190.242,190.242,0,0,0-26.091,9.527c-7.755,3.582-14.819,8.181-23.23,10.179a91.459,91.459,0,0,1-26.31,2.188,103.846,103.846,0,0,1-26.12-5.156c-8.128-2.614-16.6-4.9-23.555-10.077-7.288-5.431-12.919-13.243-18.136-20.59a63.812,63.812,0,0,1-7.043-11.841c-1.544-3.658-2.553-7.976-5.325-10.957a10.851,10.851,0,0,0-1.871,2.921c-.157.514.769.5.674.907-.18.77-1.2,1.555-1.8,1.974-2.14,1.506-2.153.307-1.591,3.124.327,1.642-.292,5.346-2.969,4.135.986,1.18-.58,2.669-1.092,3.641a1.25,1.25,0,0,0-1.312-.423c.979,1.95.4,2-.548,3.55a12.647,12.647,0,0,0-.7,1.639c-.969,1.381-2.09,1.729-2.655,3.448-.465,1.413-.346,2.966-.863,4.376l-1.878-2.6a10.7,10.7,0,0,0,.68,2.3c.187.386.988,1.287.978,1.5-.044.787-1.025.6-1.3,1.276-.525,1.273.234,1.46-.052,2.7-.328,1.425-1.209.855-1.628,2.07-.079.231.539,1.138.441,1.636-.138.7-.775,1.1-1,1.722-.573,1.591-.364,2.755-1.16,4.281a10.367,10.367,0,0,0-.974,1.658c-.19.592.219,1.851-.148,2.381-1.774,2.554-1.524-1.846-1.39-2.937,1.129-9.162,4.751-18.617,8.065-27.181,1.647-4.254,3.251-8.642,5.315-12.717a15.686,15.686,0,0,1,3.164-4.59c1.737-1.588,4.2-2.223,5.775-4-.248.28,1.706-1.569,1.393-.961.28-.543-.208-1.279-.035-1.8.216-.653.624-.79,1.078-1.361.817-1.026,1.787-1.537.5-2.844,1.9-.421,2.814-1.039,3.195-3.078.278-1.492-.283-1.394.7-2.389s1.48-.219,2.1-1.949a56.412,56.412,0,0,0,1.675-7.051c.387-1.891-.553-4.673,1.041-6.008,2.019-1.691,3.826-.975,3.464-4.375-.353-3.315.677-5.323,1.712-8.46,2.066-6.263,2.865-12.875,4.676-19.212,3.867-13.524,10.7-25.718,18.041-37.623,6.786-11,16.274-20.373,25.436-29.4,2.508-2.472,4.989-4.98,7.242-7.69,1.94-2.334,2.826-5.511,4.691-7.726,1.133-1.345,3.242-1.921,4.824-2.634,2.638-1.19,5.782-2.742,8.76-2.5-1.183,3.989-1.569,8.65,1.923,11.641,4.236,3.629,8.076-.141,11.959-2.21,7.078-3.771,17.2-.309,23.373-5.961,1.47-1.346,1.88-3.5,3.408-4.754,1.121-.922,2.717-1.156,3.979-1.843,3.836-2.088,5.7-5.909,4.2-10.131-1.365-3.859-3.486-5.2,1.235-7.154,3.832-1.587,5.289-3.977,3.555-8.234-1.654-4.058-4.683-4.525-7.55-7.181-2.777-2.572.413-5.566,2.493-7.5,2.683-2.491,3.2-4.736.085-7.326-3.257-2.712-7.906-2.617-11.7-1.276a14.3,14.3,0,0,0-8.939,8.121c-1.85,4.158-6.436,3-10.15,1.839-3.552-1.108-4.476-3.5-6.809-6.073-2.594-2.863-7.88-.415-10.939.894-7.535,3.22-15.024,8.3-15.323,17.306-.178,5.368,2.092,9.932,3.273,14.971,1.08,4.608-6.323,4.245-7.605,8.7-13.676-7.24-28.906-9.455-44.193-9.948-16.248-.524-32.73-.945-48.839,1.618,3.739-6.515,5.714-13.659,8.967-20.352.937-1.927,1.34-1.762,3.407-1.18,3.97,1.118,7.911,2.369,11.873,3.521,14.474,4.207,28.663,9.277,42.658,14.829,1.36.54,4.4,2.038,5.589.409,1.376-1.879-1.807-4.2-3.095-5.141C308.24,45.4,301.257,42.9,294.945,40c-13.8-6.339-29.077-9.349-43.474-14.057A618.579,618.579,0,0,0,155.936,2.952C148.054,1.707,140.088,1.525,132.171.6a89.1,89.1,0,0,0-21.049.046C98.172,2.209,83.158,5.578,75.844,17.433c-6.6,10.7-11.011,22.737-9.326,35.433.506,3.813,2.121,8.329,6.827,7.346,3.264-.682,5-3.455,6.513-6.162,2.29-4.089,4.552-8.178,7.033-12.158.92,5.967-2.424,11.834-1.9,17.913.358,4.125,2.637,10.642,7.992,9.474,7.34-1.6,10.36-13.067,13.889-18.568.179,4.237-1.306,8.413-.852,12.659.448,4.195,3.726,8.155,8.329,7.58,4.342-.542,7.164-5.194,9.008-8.7,2.566-4.874,4.41-10.1,6.916-15,2.349-4.6,5.132-10.073,10.74-10.937,5.005-.772,10.742,1.015,15.686,1.751,13.715,2.044,27.153,5.524,40.718,8.335,14.544,3.014,29.432,4.845,43.528,9.708-4.956,6.746-17.927,5.288-25.31,6.013-11.158,1.095-22.459,1.918-33.554,3.533-10.958,1.595-21.686,4.426-32.558,6.481-10.815,2.045-21.611,4.092-32.076,7.579-19.429,6.474-39.183,14.667-56.3,25.962-7.965,5.256-15.041,11.263-19.961,19.56-4.952,8.348-7.331,17.788-8.239,27.391-.565,5.98.395,11.154,1.553,16.974.839,4.213,1.111,11.268,4.489,14.353,6.448,5.889,11.8-18,12.993-20.882.857,4.728-.545,31.362,9.8,29.2,4.618-.966,5.665-7.3,6.431-11.122,1.4-6.959,2.648-14.058,5.038-20.761,1.534,9.031,2.173,18.439,5.477,27.064,2.194,5.728,8.456,15.892,12.821,6.086,3.274-7.355,2.151-15.8,2.543-23.6.435-8.653,2.919-17,3.8-25.567.341-3.319.032-7.06,3.368-8.871,2.863-1.554,7.051-2.061,10.177-2.929,9.26-2.571,18.58-4.934,27.8-7.662s18.313-5.918,27.41-9.031c8.7-2.976,17.584-4.669,26.39-7.217,5.007-1.45,9.953-2.966,15.03-4.176,2.363-.563,4.754-1,7.111-1.584,1.747-.432,4.049-2.061,5.846-2.032,1.849.03,2.544,1.6,4.664,1.718a51.849,51.849,0,0,0,6.873-.546c5.53-.424,11.408-1.11,16.925-.344-3.316,3.933-7.794,6.652-11.719,9.91a110.388,110.388,0,0,0-12.774,12.252,350.935,350.935,0,0,0-21.965,28.038,176.823,176.823,0,0,0-16.881,30.652,131.618,131.618,0,0,0-6.256,16.336,29.371,29.371,0,0,1-2.416,6.687c-1.1,1.915-2.661,3.565-1.355,5.877a23.738,23.738,0,0,0,2.519-1.938c-.939,6.616-2.966,13.017-4.008,19.613-1.027,6.5-.986,13.182-.919,19.745a209.531,209.531,0,0,0,3.95,40.661,321.4,321.4,0,0,0,11.01,40.313c4.4,12.662,8.809,25.942,14.947,37.876,6.555,12.747,14.353,26.149,23.842,36.939-6.2,2.539-14.086,2.064-20.649,3.087a45.788,45.788,0,0,0-18.641,6.883c-5.915,3.842-9.126,8.787-9.944,15.792-.581,4.985-2.307,11.887,4.234,13.2,4.7.942,9.963-.605,14.677-.988,8.245-.668,16.5-1.086,24.766-1.446q12.363-.54,24.731-.932c3.878-.12,7.758-.181,11.635-.32a11.1,11.1,0,0,1,4.349.413c1.232.4,1.142,1.222,2.513.2,2.212-1.645,1.757-6.832,1.695-9.113a62.85,62.85,0,0,0-1.114-10.533c-.407-2.052-5.353-15.279-1.507-15.835-4.468-4.909-6.252-11.92-8.259-18.073a228.228,228.228,0,0,1-11.791-74.712,109.991,109.991,0,0,0,55.516,16.942c20.09.635,42.162-1.015,61.239-7.7a93.476,93.476,0,0,0,24.322-12.636c2.715-1.963,5.623-6.408,9.187-6.332,4.252.091,9.014,1.7,13.237,2.389,8.076,1.316,18.617,2.059,25.454,7.055,3.714,2.713,6.376,6.511,9.69,9.638,2.521,2.379,5.855,3.67,8.358,6.049,2.7,2.566,1.628,5.919,6.1,6.127,3.827.177,8.023-1.363,11.323-3.17,6.585-3.606,13.6-11.3,7.511-18.606" transform="translate(-10.742 0)" fill-rule="evenodd"/>
      <path id="Fill-5" d="M571.952,198.283c9.636,6.845,20.689,11.521,30.759,17.685,2.521,1.543,10.373,4.747,10.3,7.609-.044,1.673-2.4,3.772-3.438,4.931-1.77,1.987-3.436,3.994-5.069,6.1-7.478,9.624-14.519,19.339-22.624,28.48-1.22,1.375-4.9,7.94-6.083,4.679-.538-1.478-.095-3.14-1.5-4.518-.721-.71-3.51-1.1-2.7-2.624l1.625.73c-.421-1.217-.39-2.55-1.021-3.7-.392-.715-1.158-1.053-1.423-1.858-.367-1.112.255-2.4.151-3.551a15.521,15.521,0,0,0-1.049-3.3c-2.1-6.392-2.849-12.837-3.923-19.432-1.062-6.526-2.717-12.848-3.366-19.447-.686-6.97-1.528-13.926-2.65-20.84,2,.281,3.542,2.457,4.959,3.688,2.227,1.934,4.644,3.666,7.047,5.373M564.4,265.762a3.82,3.82,0,0,1-1.079-1.331c4.723-2.34,1.873,1.652,1.079,1.331m-2.872-4.99c-2.059.567-3.538.682-5.125-.165-.151-.08.023-.7-.249-.826-.237-.11-.6.026-.8-.077-.691-.352-1.9.419-2.019-.927,2.627-.8,5.211-2.288,7.985-2.538,3.855-.347,3.677,3.577.21,4.533m-9.02-7.759c-2.809.657-5.123,2.191-8.108,1.79a16.081,16.081,0,0,1-7.446-3.5c5.529-1.565,11.326-1.848,16.85-3.362,1.8-.493,4.162-1.792,6.1-1.269,2.153.582,2.289,2.6,2.935,4.435-3.446.62-6.919,1.11-10.331,1.907m-17.568-7.788c-2.7.645-5.457,2.055-7.714-.379-.364-.393-.683,0-.64-1.21a3.231,3.231,0,0,1,2.2-2.546c2.341-1.056,5.623-.373,8.109-.528,3.966-.247,8-1.071,11.926-1.706,2.716-.439,5.522-1.414,8.3-1.222,2.143.149,4.729,1.975,1.605,3.308-2.845,1.214-7.11,1.028-10.192,1.554-4.556.777-9.1,1.655-13.591,2.729m-2.636-12.7.524.534a5.242,5.242,0,0,1,1.316-.893c1.368-.119,2.744-.025,4.115-.1a70.333,70.333,0,0,0,9.44-1.334c2.526-.493,5.1-1.344,7.7-1.131,2.251.184,2.488.645,2.635,2.818-5.746,0-11.664-.121-17.311,1.1-3.676.791-7.728,3.148-9.569-1.1l1.151.113m3.592-9.2c1.425,1.085,5.309-.719,7.016-.9a36.743,36.743,0,0,0,5.4-.862c1.593-.41,6.865-2.458,8.087-.5,1.874,3-5.713,3.551-6.916,3.7a110.937,110.937,0,0,0-15.187,2.5l1.6-3.938m6.92-10.192c.368,1.387,11.776-3.724,11.984-.009.16,2.85-11.287,4.27-13.345,4.02.482-1.312,1.764-2.488,1.361-4.01m3.83-8.718c.243-2.8.618-2.781,2.861-3.045,1.711-.2,4.063-1.2,3.618,1.846-.381,2.611-6.723,4.022-6.479,1.2m4.078-9.626c.54-1.5,1.755.52,1.78,1.283.068,2.032-1.473,1.593-2.956,1.593q.619-1.424,1.176-2.876M569.5,183.523c-.3-.364-2-.5-2.484-.68-1.189-.436-1.02-1.364-2.541-.448-.076-.077.069-.765-.014-.8a12.469,12.469,0,0,1-1.454-.64,18.99,18.99,0,0,1-2.357-1.731,21.481,21.481,0,0,0-2.566-2.317,3.357,3.357,0,0,0-1.189-.652c-1.23-.19-.877.667-1.952.837-.662.1-1.144-.668-2.01-.335-.748.288-1.183,1.337-1.516,1.962-1.212,2.273-2.147,4.72-3.334,7.017-6.068,11.747-12.966,23.049-18.844,34.906-2.831,5.712-5.785,11.464-7.778,17.534-1.437,4.378-4.681,10.774-1.89,15.149,2.03,3.181,6.094,4.554,9.337,6.091,4.879,2.313,9.377,5.336,14.31,7.578,5.882,2.674,11.594,5.471,17.328,8.456,2.445,1.273,4.652,3.107,7.089,4.314,1.491.738,3.793-.521,4.278,1.17,1.868-2.263,4.892-.754,7.054-2.348,1.271-.937,2.2-2.783,3.261-3.938,1.591-1.731,3.317-3.336,4.94-5.036,6.442-6.753,12.39-13.787,18.25-21.041,5.6-6.927,12.137-13.471,16.866-21.054a10.276,10.276,0,0,0,.979-9.492c-.9-2.426-3.085-6.089-6.2-4.482,1.181-1.96-3.374-4.054-4.755-4.437-.021-.005-.293,1.5-.678,1.463a12.408,12.408,0,0,0-1.727-3.766,55.907,55.907,0,0,0-5.586-3.821c-1.69-.965-3.474-1.443-5.111-2.523-1.985-1.308-3.807-2.86-5.8-4.16a38.909,38.909,0,0,0-6.193-3.6c-1.844-.748-3.5-.895-5.157-2.121a30.4,30.4,0,0,0-6.208-3.592c-2.047-.9-4.884-1.694-6.349-3.465" transform="translate(-169.891 -57.747)" fill-rule="evenodd" fill="url(#linear-gradient-2)"/>
      <path id="Fill-7" d="M131.41,432.749q.565-1.326,1.128-2.652c.465,1.541.6,2.307-1.128,2.652m.5,4.084c-.816.146-.494-2.412-.494-2.858,1.409.8.242,1.753.494,2.858m-1.271-7.38,2.086-1.232c-.968,1.794-.588.673-.189,1.871a1.716,1.716,0,0,1-1.9-.639m-4.12,14.019c-2.606,9.455-10.883,16.912-19.625,20.774a32.908,32.908,0,0,1-15.387,2.527c-2.092-.1-4.554-.775-6.568-.649-1.55.1-1.48.165-2.765,1.477-.568-1.046-.157-1.78-1.3-2.389-1.422-.76-2.012.125-2.718,1.177a7.358,7.358,0,0,0-2.5-2.024c.038.018-1.145-.027-1.1-.012-.214-.066-1.5-.893-1.9-1.043-1.653-.62-3.563-.875-5.088-1.764-1.334-.777-2.432-2.957-3.959-1.281,0-2.8-3.772-3.961-5.54-5.427a23.912,23.912,0,0,1-6.335-8.965c-1.468-3.5-1.958-6.854-2.646-10.461-.48-2.52-3.624-6.163-1.736-8.705.45,1.066.239,2.158.986,3.125a16.509,16.509,0,0,0,1.346-4.163c.149-.695,1.014-2.733.916-3.338-.2-1.238-1.733-1.306-.883-2.824,1.763,1.918,3.185-1.45,1.854-2.793a6.563,6.563,0,0,0-1.2,2.5c-1.733-3.5,3.064-2.372,2.014-5.531,1.751-.337,2.757-.778,3.423-2.508.74-1.925.2-2.344,1.876-3.616.578-.437,2.213-1.066,2.512-1.785.579-1.39-.894-1.8.4-3.1.436.764,2.134,2.278,3.064.838.186-.287-.6-.491-.027-1.152.842-.979,1.785-1.939,3.21-1.733-1.128-2.82,6.08-3.044,7.927-3.709a19.546,19.546,0,0,1,5.382-1.259c1.96-.155,2.057-.729,3.717-1.909.141,1.688.547,1.317,1.747,1.615q.433-.742.887-.167a1.459,1.459,0,0,0,1.1.4c.659.034,1.406-.052,2.1-.038,1.621.032,3.293-.1,4.883-.069a3.236,3.236,0,0,0,1.152-.428q.225.424.45.848c.842.106.908,1.161,1.944.007.307,1.468,1.187.7,2.118,1.1.848.364.984.945,1.767,1.35a1.408,1.408,0,0,0,1.657.167q.842.624,1.71,1.212a33.572,33.572,0,0,0,3.444,1.445q1.12.462,2.225.961.033,1.333,1.2.941a5.349,5.349,0,0,1,1.576,1.56,42.947,42.947,0,0,0,4.846,6.035c8.445,8.781,11.04,21.194,7.846,32.78m2.592-37.337c-3.813-5.106-9.209-10.952-14.059-14.177-2.458-1.635-5.908-4.57-8.914-5.434-.713-.205-1.45-.219-2.151-.434-.541-.166-.836-.721-1.453-.822-.432-.07-.479.9-.938.807-.959-.187-1.567-1.138-2.244-1.733-1.454,2.506-2.244-1.708-4.379,1.125-2.541-3.985-8.512-3.113-12.57-2.913a10.192,10.192,0,0,0-2.836.8,5.184,5.184,0,0,1-2.176.211,16.559,16.559,0,0,0-7.595,1.5c-4.194,1.992-8.044,5.1-12.027,7.5A49.875,49.875,0,0,0,45.9,402.6c-12.313,14.19-15.605,34.9-5.787,51.353,15.595,26.127,55.82,28.919,78.614,11.191,17.61-13.7,24.312-40.359,10.385-59" transform="translate(-11.26 -125.283)" fill="#c5eeff" fill-rule="evenodd"/>
      <path id="Fill-9" d="M454.656,302.8c-.438,1.044-4.525.693-4.614-.539-.133-1.84,5.375-1.276,4.614.539m4.341-.683c2.316.188,6.122,1.761,8.354.811,3.407-1.451-.171-3.678-2-4.343-1.86-.677-4.63-.317-5.586-2.262-.719-1.462,1.058-5.545-1.147-4.888-2.314.688-1.641,6.536-5.272,4.565-1.732-.941-1.025-6.67-3.926-3.743-.794.8-.863,2.271-1.915,2.868-1.073.61-2.419-.026-3.552.028-3,.141-3.955,2.946-.916,4.059,1.125.412,5.364.915,2.8,2.753-1.618,1.158-5.213-1.272-6.6.744-1.91,2.769,3.206,2.831,4.581,3.659,2.329,1.4.405,4.679.591,7.012.284,3.565,2.355,2.82,3.107-.2.638-2.56-.153-6.244,3.706-5.227,6.284,1.657-3.494,9.634,1.109,11.675,2.935,1.3,3.35-5.734,3.578-6.946.844-4.472,3.356-3.428,7.161-3.291,4.445.16,5.518-3.128.811-4.07-1.5-.3-3.568.079-4.872-.877-.772-.565-1.833-2.477-.006-2.329" transform="translate(-143.789 -95.475)" fill-rule="evenodd"/>
      <path id="Fill-11" d="M215.815,522.242c-3.6-1.288-9.616-1.01-10.506,3.637a6.313,6.313,0,0,0,1.7,5.416c1.558,1.638,4.039,1.79,3.906-1.063-.092-1.975-1.971-3.69,1.333-4.088,2.056-.247,5.1,1.29,5.2,3.561.231,5.119-8.63,5.52-11.9,4.635-6.481-1.756-4.72-8.544-.27-11.643,1.15-.8,4.449-2.034,4.6-3.7.2-2.205-2.527-1.755-3.863-1.464-9.825,2.139-11.966,18.6-1.7,21.7,4.662,1.409,11.227-.046,14.037-4.268,2.634-3.959,2.67-10.863-2.535-12.726" transform="translate(-64.736 -169.505)" fill-rule="evenodd"/>
      <path id="Fill-13" d="M20.813,349.126,11.6,353.561c-1.015-2.172-2.73-8.107-5.305-8.865-4.168-1.227-1.514,5.242-.795,6.721.591,1.215,1.962,3.1,1.629,4.546-.446,1.951-3.2,2.642-4.64,3.649-3.565,2.492-3.537,7.724,1.626,5.507,2.922-1.255,6.54-4.736,8.779-.784,1.034,1.823,3.484,12.01,6.043,5.348,1.583-4.125-6.037-8.41-2.281-11.9,1.21-1.123,2.625-1.218,3.834-1.863,2.918-1.559,1.273-4.44.322-6.8" transform="translate(0 -112.899)" fill-rule="evenodd"/>
      <path id="Fill-16" d="M684.268,129.456c-1.831-.67-4.1-1.977-6.131-1.532-2.163.473-3.034,2.64-4.606,3.942-4.275,3.541-6.766-1.737-9.115-4.629-2.219-2.731-4.925-3.394-8.056-1.716-1.247.669-6.5,3.734-5.585,5.7.659,1.413,3.255.145,4.14-.164,1.922-.669,3.707-1.255,5.673-.279,3.688,1.829,4.644,6.844,9.106,7.625,4.614.809,4.765-3.581,8.057-5.234,2.207-1.107,3.745.853,5.874.463,2.029-.372,2.968-3.325.642-4.174" transform="translate(-213.21 -40.831)" fill-rule="evenodd"/>
      <path id="Fill-19" d="M644.716,153.213c1.632.354,2.7-2.81,3.718-3.613a5.555,5.555,0,0,1,6.357-.26c3.369,2.614,2.208,8.257,7,9.728,4.287,1.315,6.307-4.332,9.916-5.738,2.1-.818,4.4-1.353,3.583-4.286-.565-2.028-2.231-2.549-4.043-1.77-3.113,1.338-4.17,6.788-7.86,6.886-3.818.1-4.232-5.4-5.871-7.8-2.5-3.654-7.636-4.537-10.555-1.043-.881,1.054-5.356,7.223-2.249,7.9" transform="translate(-210.904 -46.894)" fill-rule="evenodd"/>
      <path id="Fill-21" d="M532.349,61.573c2.27,1.553,6.793,1.5,8.884-.427,2.128-1.96-.713-2.261-2.446-2.2-1.333.046-3.829.707-3.069-1.6.674-2.043,4.381-1,4.69-3.246-2.789-.5-5.862-.32-7.925,1.872-1.492,1.585-2.258,4.143-.134,5.6" transform="translate(-174.01 -17.653)" fill-rule="evenodd"/>
    </g>
  </g>
</svg>
